<svg xmlns="http://www.w3.org/2000/svg" viewBox="-7.01 -7.01 84.09 84.09">
  <path d="M68.907,1.187c2.404,2.409,0.972,7.615-3.26,11.85c-1.783,1.779-3.731,3.034-5.577,3.747l-0.741,14.612c-0.144,2.728-1.839,6.546-3.769,8.476L26.837,68.599c-1.934,1.935-5.102,1.935-7.036,0L1.449,50.243c-1.932-1.933-1.932-5.096,0-7.028l28.728-28.728c1.932-1.932,5.746-3.628,8.476-3.764l14.684-0.747c0.719-1.826,1.959-3.751,3.729-5.515C61.296,0.214,66.506-1.222,68.907,1.187z" fill="#D1511A" stroke="#5EEAD4" stroke-width="2" stroke-linecap="round" stroke-linejoin="round"/>
  <path d="M57.297,17.439c-1.412,0.075-2.642-0.275-3.509-1.133c-0.876-0.88-1.231-2.144-1.136-3.59c-0.196,0.131-0.388,0.274-0.563,0.452c-1.313,1.317-1.313,3.464,0,4.791c1.323,1.319,3.463,1.319,4.79,0C57.037,17.795,57.178,17.619,57.297,17.439z" fill="none" stroke="#5EEAD4" stroke-width="2" stroke-linecap="round" stroke-linejoin="round"/>
  <g transform="translate(16.7,22) scale(0.22)" fill="#5EEAD4" stroke="none">
    <path d="M59.77 3.68c-1.58.01-2.39.17-2.39 3.76s.34 113.87.34 115.07c0 1.2 1.2 1.71 3.25 1.71h8.38c1.37 0 1.88-.85 1.71-3.08c-.17-2.22-.19-113.53-.19-114.89s-.62-2.43-2.81-2.51c-1.78-.05-6.41-.07-8.29-.06z"/>
    <path d="M37.13 80.6c-4.98.49-6.71 1.47-6.79 2.95c-.08 1.47 4.25 27.18 34.52 26.75c29.04-.41 32.48-18.08 32.72-24.95c.3-8.26-4.58-15.13-15.54-21.6c-8.17-4.81-27.9-12.03-31.17-14.07c-3.01-1.88-7.2-6.05-6.63-12.27c.57-6.22 7.36-12.35 19.88-12.27c12.52.08 17.45 8.8 18.41,11.37c1.54,4.15,1.24,9.56,3.52,10.27c1.06.33,4.17.21,5.97-.04c1.8-.25,4.36-1.63,4.5-5.24c.16-4.17-4.17-27.49-33.13-27.24c-27.65.23-34.46,17.19-33.39,26.92c1,9.23,8.52,17.91,20.63,22.82s33.54,10.88,33.3,21.92c-.22,9.91-11.71,13.41-21.19,12.93c-9.57-.49-14.81-6.05-16.77-12.6c-1.89-6.27-5.49-5.97-8.84-5.65z"/>
  </g>
</svg>
